<?xml version="1.0" encoding="UTF-8"?>
<!DOCTYPE svg PUBLIC "-//W3C//DTD SVG 1.1//EN" "http://www.w3.org/Graphics/SVG/1.1/DTD/svg11.dtd">
<!-- Creator: CorelDRAW (Evaluation Version) -->
<svg xmlns="http://www.w3.org/2000/svg" xml:space="preserve" width="64.435mm" height="15.5714mm" version="1.1" style="shape-rendering:geometricPrecision; text-rendering:geometricPrecision; image-rendering:optimizeQuality; fill-rule:evenodd; clip-rule:evenodd"
viewBox="0 0 2036.7 492.19"
 xmlns:xlink="http://www.w3.org/1999/xlink"
 xmlns:xodm="http://www.corel.com/coreldraw/odm/2003">
 <defs>
  <style type="text/css">
   <![CDATA[
    .fil0 {fill:#FEFEFE;fill-rule:nonzero}
    .fil1 {fill:#9900CC;fill-rule:nonzero}
    .fil2 {fill:url(#id0);fill-rule:nonzero}
   ]]>
  </style>
  <linearGradient id="id0" gradientUnits="userSpaceOnUse" x1="0" y1="313.27" x2="977.34" y2="313.27">
   <stop offset="0" style="stop-opacity:1; stop-color:#9900CC"/>
   <stop offset="1" style="stop-opacity:1; stop-color:#C6123E"/>
  </linearGradient>
 </defs>
 <g id="Layer_x0020_1">
  <metadata id="CorelCorpID_0Corel-Layer"/>
  <polygon class="fil0" points="2023.92,137.03 1949.46,137.03 1934.92,209.73 1867.06,209.73 1881.6,137.03 1802.89,136.83 1821,72.25 1894.38,72.7 1908.92,0 1951.04,0 1962.65,9.01 1973.06,18.57 1962.23,72.7 2036.7,72.7 "/>
  <path class="fil1" d="M238.03 492.19l-63.58 0 18.92 -64.63 0.52 -0.52 70.41 -238.03 -76.71 0 -89.85 303.19 -97.73 0 96.16 -324.2c0,-1.05 6.83,-6.83 20.49,-17.34 13.66,-10.51 20.84,-15.85 21.54,-16.03 0.7,-0.17 35.21,-0.26 103.51,-0.26 67.96,0 102.38,0.17 103.25,0.52 0.88,0.35 1.66,0.88 2.36,1.58 13.66,19.27 20.49,29.42 20.49,30.48l-85.65 291.1c-0.35,1.05 -1.05,2.1 -2.1,3.15l-38.88 29.95c-1.05,0.7 -2.1,1.05 -3.15,1.05zm304.76 0l-238.03 0 96.16 -324.2c0.7,-1.4 7.79,-7.27 21.28,-17.6 13.48,-10.33 20.58,-15.59 21.28,-15.76 0.7,-0.17 68.66,-0.26 203.88,-0.26 2.1,0 3.68,0.7 4.73,2.1 13.66,19.62 20.49,30.13 20.49,31.53 0,0.7 -7.53,26.45 -22.59,77.24l-97.21 0 16.29 -56.23 -67.26 0 -12.61 9.99 -26.8 90.9 101.41 0 -16.29 55.17 -101.41 0 -27.32 91.95 67.26 0 12.61 -9.98 13.66 -45.72 97.73 0c-15.76,51.84 -23.82,78.03 -24.17,78.55 -0.35,0.53 -13.48,10.95 -39.41,31.27 -0.7,0.7 -1.92,1.05 -3.68,1.05zm304.76 0l-237.5 0 95.63 -324.2c0.7,-1.4 7.79,-7.27 21.28,-17.6 13.49,-10.33 20.58,-15.59 21.28,-15.76 0.7,-0.17 1.4,-0.26 2.1,-0.26l201.77 0c2.1,0 3.85,0.7 5.26,2.1 13.31,19.97 19.97,30.48 19.97,31.53 0,0.7 -28.37,97.38 -85.12,290.05 -0.35,1.05 -1.05,2.1 -2.1,3.15l-38.88 29.95c-0.7,0.7 -1.93,1.05 -3.68,1.05zm-56.75 -55.17l13.13 -9.98 70.41 -238.03 -67.26 0 -13.14 9.99 -69.89 238.03 66.74 0z"/>
  <path class="fil0" d="M1164.18 492.19l-127.01 0 116.77 -394 -116.77 0 7.51 -25.95c0.91,-2.28 2.5,-4.32 4.78,-6.14l46.43 -36.19c2.73,-1.82 5.46,-2.73 8.19,-2.73 176.17,0 264.48,0.11 264.94,0.34 0.46,0.23 5.47,7.17 15.02,20.83 9.56,13.65 14.34,20.71 14.34,21.17 0,0.91 -2.73,10.47 -8.2,28.68l-109.25 0 -116.77 394zm403.56 0l-250.6 0 124.28 -421.31c0.91,-1.82 10.13,-9.45 27.65,-22.88 17.53,-13.43 26.74,-20.26 27.65,-20.49 0.91,-0.23 29.13,-0.34 84.67,-0.34l-116.08 393.31 39.6 0 77.85 -60.09 99.01 -333.22 79.89 0c2.73,0 5.01,0.91 6.83,2.73 17.3,25.95 25.95,39.61 25.95,40.97l0 1.37c-62.37,212.13 -93.89,318.66 -94.57,319.57 -0.68,0.91 -22.19,17.52 -64.53,49.85l-62.82 49.16c-0.91,0.91 -2.5,1.37 -4.78,1.37z"/>
  <polygon class="fil0" points="2023.92,137.03 1949.46,137.03 1934.92,209.73 1867.06,209.73 1881.6,137.03 1802.89,136.83 1821,72.25 1894.38,72.7 1908.92,0 1951.04,0 1962.65,9.01 1973.06,18.57 1962.23,72.7 2036.7,72.7 "/>
  <path class="fil2" d="M238.03 492.19l-63.58 0 18.92 -64.63 0.52 -0.52 70.41 -238.03 -76.71 0 -89.85 303.19 -97.73 0 96.16 -324.2c0,-1.05 6.83,-6.83 20.49,-17.34 13.66,-10.51 20.84,-15.85 21.54,-16.03 0.7,-0.17 35.21,-0.26 103.51,-0.26 67.96,0 102.38,0.17 103.25,0.52 0.88,0.35 1.66,0.88 2.36,1.58 13.66,19.27 20.49,29.42 20.49,30.48l-85.65 291.1c-0.35,1.05 -1.05,2.1 -2.1,3.15l-38.88 29.95c-1.05,0.7 -2.1,1.05 -3.15,1.05zm304.76 0l-238.03 0 96.16 -324.2c0.7,-1.4 7.79,-7.27 21.28,-17.6 13.48,-10.33 20.58,-15.59 21.28,-15.76 0.7,-0.17 68.66,-0.26 203.88,-0.26 2.1,0 3.68,0.7 4.73,2.1 13.66,19.62 20.49,30.13 20.49,31.53 0,0.7 -7.53,26.45 -22.59,77.24l-97.21 0 16.29 -56.23 -67.26 0 -12.61 9.99 -26.8 90.9 101.41 0 -16.29 55.17 -101.41 0 -27.32 91.95 67.26 0 12.61 -9.98 13.66 -45.72 97.73 0c-15.76,51.84 -23.82,78.03 -24.17,78.55 -0.35,0.53 -13.48,10.95 -39.41,31.27 -0.7,0.7 -1.92,1.05 -3.68,1.05zm304.76 0l-237.5 0 95.63 -324.2c0.7,-1.4 7.79,-7.27 21.28,-17.6 13.49,-10.33 20.58,-15.59 21.28,-15.76 0.7,-0.17 1.4,-0.26 2.1,-0.26l201.77 0c2.1,0 3.85,0.7 5.26,2.1 13.31,19.97 19.97,30.48 19.97,31.53 0,0.7 -28.37,97.38 -85.12,290.05 -0.35,1.05 -1.05,2.1 -2.1,3.15l-38.88 29.95c-0.7,0.7 -1.93,1.05 -3.68,1.05zm-56.75 -55.17l13.13 -9.98 70.41 -238.03 -67.26 0 -13.14 9.99 -69.89 238.03 66.74 0z"/>
  <path class="fil0" d="M1164.18 492.19l-127.01 0 116.77 -394 -116.77 0 7.51 -25.95c0.91,-2.28 2.5,-4.32 4.78,-6.14l46.43 -36.19c2.73,-1.82 5.46,-2.73 8.19,-2.73 176.17,0 264.48,0.11 264.94,0.34 0.46,0.23 5.47,7.17 15.02,20.83 9.56,13.65 14.34,20.71 14.34,21.17 0,0.91 -2.73,10.47 -8.2,28.68l-109.25 0 -116.77 394zm403.56 0l-250.6 0 124.28 -421.31c0.91,-1.82 10.13,-9.45 27.65,-22.88 17.53,-13.43 26.74,-20.26 27.65,-20.49 0.91,-0.23 29.13,-0.34 84.67,-0.34l-116.08 393.31 39.6 0 77.85 -60.09 99.01 -333.22 79.89 0c2.73,0 5.01,0.91 6.83,2.73 17.3,25.95 25.95,39.61 25.95,40.97l0 1.37c-62.37,212.13 -93.89,318.66 -94.57,319.57 -0.68,0.91 -22.19,17.52 -64.53,49.85l-62.82 49.16c-0.91,0.91 -2.5,1.37 -4.78,1.37z"/>
 </g>
</svg>
